<svg xmlns="http://www.w3.org/2000/svg" viewBox="0 0 512 512" role="img" aria-label="Yogi Roulette">
  <defs>
    <radialGradient id="bg" cx="50%" cy="50%" r="70%">
      <stop offset="0%" stop-color="#14203a"/>
      <stop offset="100%" stop-color="#030408"/>
    </radialGradient>
  </defs>
  <rect width="512" height="512" fill="url(#bg)"/>
  <circle cx="256" cy="256" r="200" fill="#12182a" stroke="#f5d78e" stroke-width="12" opacity="0.7"/>
  <g transform="translate(256 256)">
    <path d="M0-188 L18-10 A188 188 0 0 1 133 133 Z" fill="#c41e3a"/>
    <path d="M133 133 L10 18 A188 188 0 0 1 188 0 Z" fill="#1a1a22"/>
    <path d="M188 0 L-10 18 A188 188 0 0 1 133 -133 Z" fill="#c41e3a"/>
    <path d="M133 -133 L-18 -10 A188 188 0 0 1 0 -188 Z" fill="#1a1a22"/>
    <path d="M0-188 L-18 -10 A188 188 0 0 0 -133 -133 Z" fill="#c41e3a"/>
    <path d="M-133 -133 L-10 -18 A188 188 0 0 0 -188 0 Z" fill="#1a1a22"/>
    <path d="M-188 0 L10 -18 A188 188 0 0 0 -133 133 Z" fill="#c41e3a"/>
    <path d="M-133 133 L18 10 A188 188 0 0 0 0 188 Z" fill="#1a1a22"/>
  </g>
  <circle cx="256" cy="256" r="56" fill="#e8eef5" stroke="#5a6478" stroke-width="4"/>
  <circle cx="256" cy="256" r="22" fill="#2a2210" stroke="#f5d78e" stroke-width="4"/>
</svg>
